<svg width="29" height="28" viewBox="0 0 29 28" fill="none" xmlns="http://www.w3.org/2000/svg">
<path d="M11.3512 2.3656C12.3412 -0.18887 15.9556 -0.188869 16.9457 2.3656L18.5043 6.38704C18.93 7.48527 19.9589 8.23281 21.1349 8.29825L25.4411 8.53789C28.1765 8.69012 29.2934 12.1276 27.1699 13.8586L23.8269 16.5836C22.914 17.3278 22.521 18.5374 22.8222 19.676L23.925 23.8456C24.6255 26.4941 21.7014 28.6186 19.3989 27.1339L15.7742 24.7967C14.7843 24.1584 13.5125 24.1584 12.5227 24.7967L8.89797 27.1339C6.59552 28.6186 3.67141 26.4941 4.37192 23.8456L5.47472 19.676C5.77588 18.5373 5.38287 17.3278 4.46993 16.5836L1.12695 13.8586C-0.996549 12.1276 0.120363 8.69012 2.85575 8.53789L7.16201 8.29825C8.33802 8.23281 9.36692 7.48526 9.79257 6.38704L11.3512 2.3656Z" fill="#2A5AC8"/>
</svg>
